<?xml version="1.0" standalone="no"?>
<!DOCTYPE svg PUBLIC "-//W3C//DTD SVG 20010904//EN"
 "http://www.w3.org/TR/2001/REC-SVG-20010904/DTD/svg10.dtd">
<svg version="1.0" xmlns="http://www.w3.org/2000/svg"
 width="640.000000pt" height="640.000000pt" viewBox="0 0 640.000000 640.000000"
 preserveAspectRatio="xMidYMid meet">

<g transform="translate(0.000000,640.000000) scale(0.100000,-0.100000)"
fill="#000000" stroke="none">
<path d="M1563 5664 c-3 -8 -1 -25 5 -37 17 -38 96 -128 123 -143 19 -9 28
-24 31 -46 3 -18 8 -40 12 -49 6 -13 0 -18 -27 -23 -31 -6 -77 -38 -77 -54 1
-21 22 -33 73 -42 55 -9 131 -45 173 -82 27 -24 125 -58 168 -58 19 0 37 -4
41 -9 3 -6 -4 -36 -16 -68 -30 -82 -38 -262 -15 -341 23 -76 60 -156 102 -218
60 -87 112 -272 94 -334 -11 -40 -5 -57 26 -64 26 -7 127 8 171 25 24 9 24 8
18 -21 -24 -107 -128 -355 -177 -419 -24 -32 -24 -71 2 -78 23 -6 25 -16 8
-46 -20 -35 -38 -90 -38 -116 0 -29 54 -80 130 -123 30 -17 99 -63 152 -102
123 -90 239 -164 278 -177 16 -6 30 -15 30 -19 0 -18 -73 -147 -98 -172 -64
-66 -92 -97 -143 -159 -30 -36 -61 -76 -69 -88 -8 -13 -31 -44 -51 -71 -20
-27 -58 -93 -85 -147 -26 -54 -56 -109 -66 -122 -9 -12 -20 -39 -24 -60 -4
-21 -22 -53 -46 -78 -21 -24 -59 -76 -85 -115 -26 -40 -65 -93 -88 -118 -23
-25 -54 -61 -69 -80 -15 -19 -65 -75 -111 -125 -103 -113 -122 -135 -176 -213
-48 -69 -48 -69 -99 -153 -38 -62 -124 -159 -142 -159 -33 0 -89 -47 -112 -94
-13 -28 -35 -62 -48 -76 -112 -121 -188 -210 -202 -237 -18 -35 -21 -114 -6
-143 12 -23 50 -32 129 -31 54 1 72 6 114 33 28 18 71 53 97 78 58 56 88 80
100 80 5 0 29 18 54 39 25 22 59 47 75 57 54 32 74 122 44 206 l-17 48 50 47
c27 27 70 66 94 87 25 22 87 78 139 125 51 47 99 91 105 96 37 33 165 135 201
160 24 17 58 44 77 60 18 17 78 64 133 105 55 40 133 105 172 144 l73 70 74
-3 c115 -4 142 8 243 103 132 125 267 236 287 236 2 0 34 18 72 41 93 57 116
64 152 45 47 -24 141 -105 156 -134 20 -39 100 -117 162 -158 43 -29 59 -34
84 -29 16 4 32 10 35 15 8 14 70 -26 185 -119 154 -124 170 -140 170 -174 0
-31 -44 -102 -98 -157 -34 -35 -176 -244 -226 -332 -14 -26 -32 -53 -40 -61
-8 -7 -30 -39 -50 -70 -20 -31 -50 -64 -66 -72 -17 -9 -41 -32 -55 -53 -14
-20 -32 -48 -42 -62 -75 -113 -76 -115 -35 -152 18 -17 64 -35 138 -56 61 -18
129 -39 150 -49 21 -9 71 -27 109 -39 39 -12 95 -32 125 -43 79 -29 135 -28
156 4 41 63 7 151 -76 198 -50 28 -113 75 -147 108 -26 26 -78 119 -66 119 5
0 19 20 33 45 14 25 28 45 32 45 4 0 30 21 57 47 27 27 68 64 92 83 49 40 147
135 199 195 20 22 53 56 75 75 74 64 155 193 155 246 0 32 -76 217 -101 248
-23 28 -57 85 -67 114 -6 17 -25 52 -42 78 -31 43 -31 46 -13 59 10 8 21 15
26 15 14 0 7 25 -32 105 -22 44 -47 96 -55 115 -9 19 -24 48 -34 65 -9 16 -33
56 -53 90 -19 33 -38 68 -42 78 -9 23 -95 149 -164 241 -32 42 -55 83 -58 105
-7 48 -23 95 -50 156 -13 28 -26 61 -30 75 -4 14 -23 58 -42 98 -19 40 -43
103 -55 140 -11 37 -25 73 -32 81 -7 9 -13 102 -17 275 -6 241 -8 269 -34 366
-33 130 -42 182 -58 341 -14 149 -15 151 -168 312 -75 80 -107 107 -126 107
-15 0 -54 25 -106 68 -175 144 -182 147 -327 137 -184 -13 -183 -13 -335 49
-122 50 -149 58 -219 61 -90 4 -216 -16 -253 -41 -14 -9 -39 -29 -56 -46 -28
-27 -32 -28 -44 -13 -6 10 -27 34 -45 54 -18 20 -44 49 -56 65 -16 20 -49 40
-105 62 -74 28 -91 31 -155 26 -70 -5 -72 -4 -114 30 -24 20 -60 52 -80 72
-40 39 -93 50 -105 20z m67 -21 c0 -11 57 -67 103 -102 28 -22 33 -30 22 -35
-22 -8 -59 9 -78 36 -9 12 -30 38 -46 57 -34 37 -38 51 -16 51 8 0 15 -3 15
-7z m389 -164 c20 -10 41 -19 48 -19 6 0 13 -4 15 -10 2 -5 38 -47 81 -93 56
-62 86 -86 109 -91 18 -4 98 -2 178 4 80 6 246 12 370 14 124 2 262 9 308 16
78 13 86 12 120 -5 47 -25 202 -137 202 -147 0 -4 24 -23 54 -42 68 -44 76
-67 83 -240 5 -107 3 -135 -10 -160 -9 -17 -21 -44 -27 -59 -14 -39 -40 -32
-64 18 -10 22 -34 57 -52 78 -43 48 -43 56 0 23 19 -14 37 -26 40 -26 20 0 -7
33 -106 134 -62 63 -126 133 -143 155 -16 23 -36 48 -43 56 -16 18 -68 20 -78
4 -5 -9 -43 -10 -133 -5 -69 4 -214 6 -321 6 -200 0 -262 7 -426 50 -43 11
-105 20 -138 20 -58 0 -154 22 -165 38 -26 34 -164 102 -207 102 -53 0 -45 27
11 35 49 8 90 -3 135 -35 35 -25 80 -34 100 -20 13 9 13 11 0 20 -8 5 -25 10
-37 10 -24 0 -31 14 -13 25 6 3 10 24 10 46 0 21 3 39 7 39 12 0 43 -33 43
-46 0 -18 58 -64 81 -64 28 0 23 19 -11 38 -17 9 -33 27 -36 39 -10 37 -48 65
-85 61 -33 -3 -34 -5 -37 -50 -3 -42 -6 -48 -25 -48 -17 0 -19 2 -7 10 12 8
12 15 -3 57 -26 72 -23 81 26 91 47 9 91 1 146 -29z m-215 -46 c21 -60 20 -72
-2 -66 -21 5 -54 76 -46 98 11 29 32 15 48 -32z m1356 -370 c0 -8 23 -38 71
-97 l27 -31 -29 -29 c-24 -25 -38 -29 -99 -34 -47 -3 -70 -1 -70 6 0 6 9 34
20 62 11 28 20 66 20 85 0 24 5 35 18 38 28 8 42 7 42 0z m525 -95 c85 -92
125 -154 125 -194 0 -51 39 -313 55 -369 41 -147 45 -183 45 -404 l0 -220 49
-138 c27 -76 56 -151 65 -168 9 -16 16 -34 16 -38 0 -4 9 -27 19 -50 94 -207
94 -206 -10 -296 -44 -38 -114 -92 -155 -119 -62 -41 -89 -52 -162 -66 -48 -9
-107 -23 -132 -31 -87 -27 -221 -47 -293 -42 -137 8 -467 58 -487 74 -2 2 8
15 23 29 15 14 27 31 27 38 0 7 9 21 20 31 20 18 22 18 49 2 36 -21 84 -22
115 -2 21 14 26 13 62 -11 51 -35 114 -56 156 -52 27 2 34 8 36 29 2 19 -3 28
-23 37 -27 13 -25 38 2 27 24 -9 50 3 56 26 4 15 -3 25 -26 39 -33 20 -33 20
21 36 35 10 -7 74 -50 74 -26 0 -22 18 5 22 14 2 23 11 25 25 6 41 -95 67
-167 42 -17 -6 -31 -16 -31 -22 0 -25 -50 -75 -81 -79 l-31 -5 6 41 c4 22 11
43 16 46 39 24 61 187 36 259 -9 24 -16 59 -16 77 0 21 -8 42 -20 54 -11 11
-20 23 -20 28 0 10 -52 109 -83 158 -36 57 -125 144 -148 144 -10 0 -19 -3
-19 -6 0 -3 29 -35 65 -71 35 -37 73 -84 83 -106 l19 -40 -33 -49 c-19 -27
-38 -67 -44 -88 -6 -22 -14 -42 -19 -44 -5 -3 -12 -18 -15 -33 -4 -16 -16 -46
-26 -68 -10 -22 -24 -52 -29 -67 -13 -33 -22 -34 -109 -7 -94 29 -125 46 -149
84 -28 42 -76 79 -133 101 -25 9 -49 20 -54 25 -7 6 57 136 74 149 4 3 15 30
24 60 10 30 20 62 24 70 3 8 24 68 46 134 l41 118 44 18 c42 16 84 53 93 81 3
10 20 9 74 -4 102 -25 109 -24 140 28 16 28 33 45 45 45 52 0 163 98 206 183
47 91 73 162 84 225 10 66 52 172 66 172 13 0 63 -68 63 -85 0 -24 17 -51 57
-93 20 -20 44 -56 54 -79 19 -45 72 -82 102 -70 8 3 27 37 42 75 26 67 27 75
24 221 -3 83 -1 151 2 151 3 0 32 -28 64 -62z m-502 -155 c6 -31 -27 -160 -55
-210 -21 -41 -25 -43 -68 -43 -25 -1 -55 -6 -67 -13 -21 -12 -82 -93 -83 -110
0 -17 -70 -151 -82 -158 -7 -5 -24 -6 -38 -3 -53 12 -54 13 -33 37 25 27 88
136 98 168 4 13 19 45 33 72 22 43 24 56 20 148 l-4 101 25 -28 24 -29 41 48
41 47 72 -2 c65 -2 72 -4 76 -25z m-93 -291 c0 -5 -9 -18 -20 -30 -11 -12 -20
-25 -20 -30 0 -21 -92 -92 -120 -92 -18 0 59 136 83 148 26 13 77 15 77 4z
m-112 -831 c18 -28 32 -62 32 -80 0 -16 9 -54 21 -83 18 -46 19 -59 9 -116 -6
-35 -25 -90 -42 -122 l-31 -59 -28 20 c-16 11 -31 24 -34 29 -3 5 -30 16 -59
24 -29 9 -64 25 -77 36 l-24 20 21 17 c18 15 104 197 104 219 0 18 65 144 75
144 1 0 16 -22 33 -49z m-572 -142 c18 -11 48 -38 66 -61 30 -38 132 -98 167
-98 7 0 40 -22 73 -50 33 -27 66 -50 74 -50 11 0 9 -11 -11 -47 -14 -27 -25
-51 -25 -55 0 -4 -4 -18 -10 -33 -10 -25 -10 -25 -41 -9 -18 9 -37 20 -43 25
-53 45 -208 155 -240 171 -62 31 -116 77 -116 99 0 38 48 129 68 129 2 0 20
-9 38 -21z m854 -284 c0 -10 -10 -15 -34 -15 -18 0 -39 -7 -46 -15 -20 -24 5
-45 52 -45 39 0 78 -14 78 -28 0 -4 -30 -7 -67 -7 -63 0 -68 -2 -71 -22 -3
-17 3 -24 25 -29 80 -18 103 -26 103 -36 0 -10 -9 -9 -93 9 -15 3 -34 0 -42
-7 -24 -20 -1 -46 55 -65 27 -9 50 -20 50 -25 0 -20 -22 -20 -54 -1 -18 12
-41 21 -50 21 -9 0 -16 4 -16 8 0 4 -14 16 -30 26 -34 20 -87 14 -106 -12 -9
-13 -17 -11 -57 17 -26 18 -47 37 -47 43 0 8 33 77 48 98 1 2 11 -1 22 -8 13
-8 33 -9 64 -3 47 9 56 15 100 74 25 33 33 37 72 37 32 0 44 -4 44 -15z m1359
-1069 c172 -330 170 -322 124 -422 -19 -42 -52 -85 -117 -150 -50 -50 -114
-115 -142 -145 -28 -30 -67 -67 -88 -84 -58 -46 -70 -57 -136 -118 -57 -53
-64 -57 -110 -57 -40 0 -52 4 -69 25 l-20 26 48 83 c67 116 145 231 201 296
81 95 120 156 120 187 0 22 -13 41 -52 79 -52 49 -176 152 -251 207 -20 16
-35 32 -32 37 3 5 31 12 63 15 120 14 262 63 342 119 33 22 36 23 54 8 10 -10
39 -57 65 -106z m-2238 -55 c13 -10 35 -22 49 -26 14 -4 40 -15 58 -26 18 -10
60 -25 95 -34 93 -23 137 -37 137 -45 0 -9 -134 -131 -158 -144 -9 -5 -43 -30
-74 -55 -32 -25 -87 -68 -123 -96 -117 -89 -282 -223 -322 -262 -81 -77 -196
-178 -218 -192 -29 -18 -68 -8 -107 29 l-31 30 28 53 c16 28 31 54 35 57 3 3
24 32 47 66 22 33 71 92 108 130 38 38 88 94 113 124 24 30 65 78 91 105 55
60 95 113 104 137 7 21 129 168 138 168 3 0 17 -8 30 -19z m-673 -886 c17 -14
37 -25 46 -25 31 0 16 -28 -39 -71 -30 -24 -54 -52 -55 -61 0 -23 3 -23 -65
11 l-58 29 46 47 c26 26 47 50 47 55 0 11 29 40 40 40 5 0 22 -11 38 -25z
m2382 -57 c0 -5 14 -8 30 -8 37 0 39 -18 7 -57 -13 -15 -26 -36 -30 -45 -12
-33 -132 -17 -144 18 -2 7 2 18 10 26 8 8 22 30 32 48 29 58 33 60 66 42 16
-9 29 -20 29 -24z m-2510 -113 c28 -14 50 -30 50 -35 0 -6 13 -10 29 -10 31 0
46 21 28 39 -8 8 -7 11 5 11 22 0 28 -21 28 -100 0 -64 -2 -70 -31 -94 -17
-14 -35 -26 -40 -26 -6 0 -27 -16 -49 -36 -21 -19 -52 -43 -69 -52 -17 -9 -60
-46 -96 -80 -93 -91 -174 -120 -250 -88 -32 14 -35 19 -35 55 0 54 18 81 136
205 65 68 110 125 128 163 16 32 34 61 40 65 22 15 78 7 126 -17z m2376 -20
c52 -29 134 -34 154 -10 16 20 40 19 40 -1 0 -24 96 -113 177 -164 86 -54 117
-95 110 -143 -9 -69 -18 -71 -148 -21 -52 19 -117 41 -146 48 -29 7 -64 21
-77 30 -14 9 -56 23 -93 30 -38 8 -82 22 -98 30 -17 9 -37 16 -45 16 -43 0
-51 45 -17 87 13 15 27 36 30 47 9 23 50 75 60 75 5 1 28 -10 53 -24z"/>
</g>
</svg>
