<?xml version="1.0" standalone="no"?>
<!DOCTYPE svg PUBLIC "-//W3C//DTD SVG 20010904//EN"
 "http://www.w3.org/TR/2001/REC-SVG-20010904/DTD/svg10.dtd">
<svg version="1.0" xmlns="http://www.w3.org/2000/svg"
 width="700.000000pt" height="700.000000pt" viewBox="0 0 700.000000 700.000000"
 preserveAspectRatio="xMidYMid meet">

<g transform="translate(0.000000,700.000000) scale(0.100000,-0.100000)"
fill="#000000" stroke="none">
<path d="M3435 5815 c-5 -2 -28 -9 -50 -14 -22 -6 -67 -27 -100 -47 -33 -21
-99 -58 -146 -83 -173 -92 -266 -151 -341 -220 -42 -38 -85 -72 -95 -75 -55
-18 -101 -151 -69 -197 22 -32 20 -52 -9 -95 -32 -47 -34 -133 -4 -227 19 -61
20 -84 16 -264 l-4 -198 -41 -115 c-42 -121 -98 -245 -131 -294 -22 -33 -75
-46 -85 -21 -12 33 -60 12 -67 -30 -4 -16 -11 -19 -50 -16 -52 3 -79 -15 -79
-54 0 -14 -13 -39 -29 -57 -39 -44 -63 -94 -105 -210 -19 -53 -52 -127 -74
-165 -23 -38 -44 -81 -48 -96 -4 -18 -17 -32 -39 -41 -43 -18 -75 -87 -75
-163 0 -67 20 -99 51 -82 18 9 18 12 4 32 -34 48 -4 147 52 175 25 12 39 28
48 53 6 20 30 67 51 105 22 38 57 118 78 178 26 77 50 126 80 165 24 31 48 70
53 86 9 28 13 30 63 30 34 0 55 5 57 13 3 7 21 12 43 12 33 0 46 -8 107 -67
144 -141 401 -273 531 -273 15 0 44 5 66 11 l39 11 -7 71 -6 72 38 -44 c20
-25 47 -68 58 -97 12 -28 31 -65 43 -80 11 -16 32 -58 47 -94 14 -36 32 -72
39 -80 44 -53 215 -437 215 -485 0 -9 15 -55 34 -104 19 -48 39 -114 46 -147
30 -149 94 -342 169 -510 23 -51 41 -96 41 -101 0 -14 119 -310 187 -465 30
-70 70 -144 88 -165 17 -21 40 -53 49 -71 11 -22 23 -32 34 -30 28 6 16 45
-34 111 -25 33 -53 79 -63 101 -49 107 -140 325 -151 361 -7 22 -16 45 -20 50
-4 6 -20 46 -35 90 -16 44 -44 114 -63 155 -50 108 -108 284 -147 440 -53 212
-161 517 -232 655 -14 28 -34 66 -44 86 -10 19 -25 41 -33 49 -9 7 -16 18 -16
24 -1 6 -9 29 -20 51 -11 22 -19 45 -20 51 0 5 -13 28 -29 50 -15 21 -34 56
-40 76 -13 39 -56 105 -102 154 -26 26 -27 32 -16 48 13 18 19 15 89 -43 41
-33 81 -61 88 -61 7 0 21 -6 29 -14 44 -37 154 -47 209 -18 18 9 69 40 114 67
44 28 89 55 99 61 17 10 73 59 170 149 20 19 52 42 72 51 45 21 53 44 36 96
-16 51 0 136 34 182 22 28 35 33 157 59 206 44 281 92 338 215 23 50 24 63 19
156 -4 78 -11 114 -30 156 -14 31 -29 86 -35 123 -12 73 -98 249 -131 267 -10
5 -24 31 -31 57 -18 66 -62 151 -136 265 -69 104 -89 122 -142 120 -36 -2 -92
-36 -92 -57 0 -20 26 -25 47 -10 21 17 79 20 88 5 3 -5 -3 -10 -14 -10 -33 0
-51 -11 -51 -31 0 -16 8 -19 46 -19 40 0 51 -5 79 -34 71 -76 153 -267 174
-406 5 -36 10 -45 26 -45 12 0 21 9 25 25 6 23 8 21 33 -27 15 -29 31 -81 36
-115 5 -35 20 -90 34 -123 37 -89 44 -195 18 -265 -41 -109 -123 -162 -310
-201 -53 -11 -100 -24 -105 -29 -6 -6 -17 -10 -26 -10 -23 0 -66 -48 -85 -94
-12 -29 -16 -62 -13 -120 l3 -80 -52 -31 c-29 -16 -53 -36 -53 -42 0 -7 -12
-20 -27 -30 -16 -9 -53 -40 -84 -68 -31 -27 -103 -78 -161 -112 -92 -56 -110
-63 -156 -63 -40 0 -66 7 -110 32 -192 108 -333 279 -359 433 -6 41 -12 50
-28 50 -53 0 17 -212 101 -305 l38 -41 -22 -68 c-24 -75 -27 -107 -12 -147 15
-39 -1 -46 -86 -39 -96 8 -183 47 -356 161 -53 35 -111 83 -129 105 l-33 42
19 31 c49 83 81 146 101 201 17 48 29 64 58 80 81 45 159 129 213 226 29 52
57 115 64 142 14 59 29 61 29 3 0 -25 4 -56 10 -70 11 -31 84 -81 105 -72 18
7 19 22 3 35 -78 64 -73 54 -72 128 1 146 62 221 149 181 26 -12 42 -47 32
-71 -8 -20 9 -41 27 -34 12 5 16 20 16 56 0 45 -3 52 -35 77 -21 15 -53 28
-78 31 -51 6 -84 -16 -123 -83 -14 -24 -30 -41 -35 -38 -19 11 -37 -18 -64
-104 -40 -126 -95 -221 -168 -288 -56 -52 -62 -55 -65 -36 -2 12 4 46 12 76
12 39 16 99 16 218 0 140 -3 176 -22 244 -31 108 -29 173 5 214 30 36 36 85
12 116 -33 44 -5 128 55 159 14 7 48 34 75 60 72 66 183 140 303 202 58 30
117 62 131 72 46 32 144 78 197 91 41 11 61 11 100 0 27 -6 77 -18 110 -25 34
-8 92 -25 128 -40 51 -20 70 -24 80 -15 11 8 19 3 36 -25 21 -35 43 -44 55
-25 10 16 -40 95 -82 129 -45 37 -93 42 -93 10 0 -21 2 -22 -75 2 -110 33
-231 48 -270 34z"/>
<path d="M4101 4731 c-63 -72 -167 -137 -270 -167 -107 -31 -111 -33 -111 -59
0 -32 38 -45 140 -48 69 -2 85 1 85 13 0 13 -13 19 -90 36 -29 6 -27 7 30 26
32 11 89 39 125 62 71 47 180 155 180 180 0 33 -40 14 -89 -43z"/>
<path d="M3859 4710 c-69 -53 -183 -106 -264 -122 -27 -6 -88 -8 -133 -5 -78
5 -88 3 -139 -24 -31 -16 -58 -28 -60 -25 -2 2 5 36 16 77 20 77 19 92 -6 87
-17 -3 -64 -125 -66 -173 -2 -28 0 -30 41 -33 31 -2 53 3 79 20 34 20 50 22
173 23 122 1 140 3 172 23 20 13 59 29 87 38 30 8 76 35 113 65 72 58 83 72
65 88 -10 8 -29 -1 -78 -39z"/>
<path d="M3975 4456 c-19 -14 -19 -15 -2 -33 9 -11 14 -23 11 -26 -4 -4 -2
-13 5 -20 19 -23 131 2 131 29 0 21 -26 28 -61 15 -37 -13 -47 -8 -30 13 26
32 -17 49 -54 22z"/>
<path d="M3746 4345 c-12 -33 91 -113 128 -99 25 10 19 31 -13 42 -16 6 -44
24 -62 41 -36 35 -44 37 -53 16z"/>
<path d="M3553 3943 c-8 -20 41 -65 62 -57 23 9 18 30 -11 53 -32 25 -43 26
-51 4z"/>
<path d="M2597 3244 c-11 -12 12 -42 38 -48 25 -6 47 -45 105 -181 12 -27 47
-93 78 -145 64 -107 126 -245 147 -327 8 -31 19 -60 24 -67 8 -10 92 -273 104
-326 18 -77 58 -386 53 -406 -4 -14 7 -53 30 -106 19 -46 49 -121 65 -167 41
-112 79 -192 96 -198 33 -13 33 15 -1 88 -78 168 -142 399 -165 594 -17 138
-37 230 -79 365 -19 63 -36 126 -37 140 -10 113 -151 679 -172 687 -33 13 -33
-15 -3 -128 44 -160 69 -269 61 -269 -3 0 -28 42 -56 92 -27 51 -59 109 -70
128 -11 20 -42 84 -68 142 -41 90 -53 107 -83 121 -37 18 -57 21 -67 11z"/>
<path d="M1912 3068 c-5 -7 -13 -34 -17 -61 -8 -52 -20 -68 -28 -37 -5 18 -33
38 -42 29 -12 -12 30 -329 65 -493 22 -104 47 -230 55 -280 49 -284 167 -787
209 -887 15 -37 86 -313 86 -337 0 -18 114 -300 151 -375 34 -67 106 -178 123
-189 6 -4 17 -1 24 6 11 11 5 26 -36 87 -63 94 -81 131 -148 295 -53 132 -68
188 -41 153 34 -45 83 -46 176 -3 66 30 189 62 268 70 l58 6 40 -68 c22 -38
63 -103 91 -144 28 -41 66 -102 83 -135 18 -33 39 -66 46 -74 15 -15 35 -7 35
14 0 17 -86 165 -145 250 -50 73 -95 150 -95 164 0 6 12 11 28 11 27 0 154 29
306 69 44 12 83 18 86 14 4 -5 23 -57 43 -118 66 -198 92 -260 110 -263 28 -6
21 36 -27 165 -70 188 -77 217 -58 237 12 12 13 19 4 28 -14 14 -120 -4 -300
-51 -62 -16 -140 -32 -175 -35 -34 -4 -80 -11 -102 -16 -22 -4 -80 -16 -130
-26 -49 -9 -127 -32 -172 -50 -45 -19 -91 -34 -102 -34 -31 0 -75 78 -104 184
-53 191 -67 253 -73 326 -3 41 -14 118 -24 170 -10 52 -28 149 -40 215 -25
141 -44 227 -70 310 -18 57 -56 236 -80 375 -6 36 -22 115 -36 175 -21 90 -25
124 -20 185 11 132 11 143 0 147 -6 2 -16 -2 -22 -9z m7 -378 c11 -52 34 -169
51 -260 17 -91 44 -210 60 -265 42 -141 135 -641 116 -624 -13 12 -114 455
-146 639 -11 69 -30 166 -40 215 -65 309 -83 413 -69 398 4 -4 16 -51 28 -103z"/>
</g>
</svg>
